<svg xmlns="http://www.w3.org/2000/svg"
     version="1.1"
     xmlns:xlink="http://www.w3.org/1999/xlink"
     xmlns:svgjs="http://svgjs.dev/svgjs"
     width="1000" height="277"
     viewBox="0 0 1000 277">
    <g transform="matrix(1,0,0,1,-0.6060347092779921,-0.48218691005160963)"><svg viewBox="0 0 396 110" data-background-color="#ffffff" preserveAspectRatio="xMidYMid meet" height="277" width="1000" xmlns="http://www.w3.org/2000/svg" xmlns:xlink="http://www.w3.org/1999/xlink"><g id="tight-bounds" transform="matrix(1,0,0,1,0.2399897448740944,0.19148216644649096)"><svg viewBox="0 0 395.52 109.617035667107" height="109.617035667107" width="395.52"><g><svg viewBox="0 0 395.52 109.617035667107" height="109.617035667107" width="395.52"><g><svg viewBox="0 0 395.52 109.617035667107" height="109.617035667107" width="395.52"><g id="textblocktransform"><svg viewBox="0 0 395.52 109.617035667107" height="109.617035667107" width="395.52" id="textblock"><g><svg viewBox="0 0 395.52 109.617035667107" height="109.617035667107" width="395.52"><g transform="matrix(1,0,0,1,0,0)"><svg width="395.52" viewBox="2.299999952316284 -47 189.239990234375 52.45000076293945" height="109.617035667107" data-palette-color="#000000"><path d="M41.15-29.8Q41.15-25.55 38.95-22 36.75-18.45 32.55-16.2 28.35-13.95 22.55-13.55L22.55-13.55 20.4-1.5Q19.15 5.45 13.6 5.45L13.6 5.45Q10.55 5.45 7.98 3.65 5.4 1.85 3.85-1.85 2.3-5.55 2.3-10.95L2.3-10.95Q2.3-21.1 5.58-28.18 8.85-35.25 14.38-38.78 19.9-42.3 26.55-42.3L26.55-42.3Q31.25-42.3 34.52-40.65 37.8-39 39.48-36.18 41.15-33.35 41.15-29.8L41.15-29.8ZM23.45-18.7Q33.7-20 33.7-29.35L33.7-29.35Q33.7-32.65 31.53-34.73 29.35-36.8 24.8-36.8L24.8-36.8Q19.65-36.8 15.83-33.55 12-30.3 9.93-24.53 7.85-18.75 7.85-11.35L7.85-11.35Q7.85-8.25 8.47-5.85 9.1-3.45 10.08-2.13 11.05-0.8 11.95-0.8L11.95-0.8Q13.2-0.8 13.85-4.25L13.85-4.25 15.5-13.7Q13.55-14 13.8-13.95L13.8-13.95Q12.3-14.2 11.85-14.88 11.4-15.55 11.4-16.6L11.4-16.6Q11.4-17.7 12.03-18.35 12.65-19 13.75-19L13.75-19Q14.25-19 14.5-18.95L14.5-18.95Q15.7-18.75 16.35-18.7L16.35-18.7Q17-22.6 18.2-29.15L18.2-29.15Q18.5-30.85 19.58-31.58 20.65-32.3 22.1-32.3L22.1-32.3Q23.75-32.3 24.48-31.68 25.2-31.05 25.2-29.7L25.2-29.7Q25.2-28.9 25.1-28.4L25.1-28.4 23.45-18.7ZM62.45-11.15Q63.1-11.15 63.47-10.55 63.85-9.95 63.85-8.9L63.85-8.9Q63.85-6.9 62.9-5.8L62.9-5.8Q61.05-3.55 57.67-1.65 54.3 0.25 50.45 0.25L50.45 0.25Q45.2 0.25 42.3-2.6 39.4-5.45 39.4-10.4L39.4-10.4Q39.4-13.85 40.85-16.82 42.3-19.8 44.87-21.55 47.45-23.3 50.7-23.3L50.7-23.3Q53.6-23.3 55.35-21.58 57.1-19.85 57.1-16.9L57.1-16.9Q57.1-13.45 54.62-10.98 52.15-8.5 46.25-7.05L46.25-7.05Q47.5-4.75 51-4.75L51-4.75Q53.25-4.75 56.12-6.33 59-7.9 61.1-10.45L61.1-10.45Q61.7-11.15 62.45-11.15L62.45-11.15ZM49.85-18.4Q48-18.4 46.72-16.25 45.45-14.1 45.45-11.05L45.45-11.05 45.45-10.95Q48.4-11.65 50.1-13.05 51.8-14.45 51.8-16.3L51.8-16.3Q51.8-17.25 51.27-17.82 50.75-18.4 49.85-18.4L49.85-18.4ZM82.1-11.15Q82.75-11.15 83.12-10.55 83.5-9.95 83.5-8.9L83.5-8.9Q83.5-6.9 82.55-5.8L82.55-5.8Q80.4-3.15 77.85-1.45 75.3 0.25 72 0.25L72 0.25Q61.8 0.25 61.8-14.1L61.8-14.1Q61.8-16.3 61.95-18.55L61.95-18.55 60-18.55Q58.5-18.55 57.97-19.1 57.45-19.65 57.45-20.85L57.45-20.85Q57.45-23.65 59.7-23.65L59.7-23.65 62.55-23.65Q63.4-29.15 65.15-33.7 66.9-38.25 69.37-40.95 71.85-43.65 74.7-43.65L74.7-43.65Q76.8-43.65 78-41.8 79.2-39.95 79.2-37.15L79.2-37.15Q79.2-29.4 72.7-23.65L72.7-23.65 78.3-23.65Q79.1-23.65 79.45-23.3 79.8-22.95 79.8-22L79.8-22Q79.8-18.55 74.15-18.55L74.15-18.55 68.05-18.55Q67.95-16.05 67.95-14.65L67.95-14.65Q67.95-9.45 69.17-7.35 70.4-5.25 73.05-5.25L73.05-5.25Q75.2-5.25 76.85-6.55 78.5-7.85 80.75-10.45L80.75-10.45Q81.35-11.15 82.1-11.15L82.1-11.15ZM73.35-38.85Q72.6-38.85 71.67-36.98 70.75-35.1 69.92-31.78 69.1-28.45 68.55-24.4L68.55-24.4Q71.5-26.95 72.97-30.13 74.45-33.3 74.45-35.9L74.45-35.9Q74.45-38.85 73.35-38.85L73.35-38.85ZM118.24-15.2Q118.39-15.25 118.74-15.25L118.74-15.25Q119.49-15.25 119.89-14.75 120.29-14.25 120.29-13.4L120.29-13.4Q120.29-11.85 119.69-10.98 119.09-10.1 117.89-9.7L117.89-9.7Q115.59-8.95 112.99-8.95L112.99-8.95Q110.79-8.95 108.84-9.55L108.84-9.55Q107.39-7.2 105.64-4.7L105.64-4.7Q103.64-1.85 102.22-0.8 100.79 0.25 98.99 0.25L98.99 0.25Q96.99 0.25 95.97-1.3 94.94-2.85 94.69-6.4L94.69-6.4 94.44-10.05Q92.89-5.85 91.67-3.65 90.44-1.45 89.22-0.6 87.99 0.25 86.34 0.25L86.34 0.25Q84.29 0.25 83.12-1.35 81.94-2.95 81.64-6.4L81.64-6.4Q81.04-13.4 81.04-18.65L81.04-18.65 81.04-20.4Q81.09-22.05 81.94-22.7 82.79-23.35 84.49-23.35L84.49-23.35Q85.79-23.35 86.42-22.78 87.04-22.2 87.04-20.85L87.04-20.85Q87.04-15.1 87.74-5.9L87.74-5.9Q91.14-13.05 93.99-20.8L93.99-20.8Q94.54-22.3 95.32-22.83 96.09-23.35 97.19-23.35L97.19-23.35Q98.54-23.35 99.07-22.8 99.59-22.25 99.59-20.85L99.59-20.85Q99.59-15.1 100.29-5.9L100.29-5.9Q103.29-10.35 104.79-13L104.79-13Q104.04-14.45 104.04-16.45L104.04-16.45Q104.04-18.15 104.79-19.75 105.54-21.35 106.84-22.35 108.14-23.35 109.79-23.35L109.79-23.35Q111.24-23.35 112.14-22.33 113.04-21.3 113.04-19.35L113.04-19.35Q113.04-17.1 111.84-14.2L111.84-14.2Q113.74-14.3 116.89-14.95L116.89-14.95 118.24-15.2ZM141.44-15.35Q142.09-15.35 142.44-14.7 142.79-14.05 142.79-13.05L142.79-13.05Q142.79-10.65 141.34-10.2L141.34-10.2Q138.34-9.15 134.74-9L134.74-9Q133.79-4.8 130.99-2.27 128.19 0.25 124.64 0.25L124.64 0.25Q121.64 0.25 119.52-1.2 117.39-2.65 116.29-5.05 115.19-7.45 115.19-10.25L115.19-10.25Q115.19-14.05 116.64-17.03 118.09-20 120.64-21.68 123.19-23.35 126.29-23.35L126.29-23.35Q130.09-23.35 132.42-20.73 134.74-18.1 135.14-14.25L135.14-14.25Q137.49-14.4 140.74-15.25L140.74-15.25Q141.14-15.35 141.44-15.35L141.44-15.35ZM125.04-5.05Q126.64-5.05 127.82-6.35 128.99-7.65 129.39-10.1L129.39-10.1Q127.84-11.15 127.02-12.85 126.19-14.55 126.19-16.45L126.19-16.45Q126.19-17.25 126.34-18.05L126.34-18.05 126.09-18.05Q124.09-18.05 122.77-16.13 121.44-14.2 121.44-10.7L121.44-10.7Q121.44-7.95 122.52-6.5 123.59-5.05 125.04-5.05L125.04-5.05ZM142.04 0.25Q140.14 0.25 139.36-1.75 138.59-3.75 138.59-8.15L138.59-8.15Q138.59-14.65 140.44-20.5L140.44-20.5Q140.89-21.95 141.91-22.63 142.94-23.3 144.79-23.3L144.79-23.3Q145.79-23.3 146.19-23.05 146.59-22.8 146.59-22.1L146.59-22.1Q146.59-21.3 145.84-18.5L145.84-18.5Q145.34-16.5 145.04-15 144.74-13.5 144.54-11.3L144.54-11.3Q146.19-15.6 148.24-18.3 150.29-21 152.26-22.15 154.24-23.3 155.89-23.3L155.89-23.3Q159.14-23.3 159.14-20.05L159.14-20.05Q159.14-19.4 158.69-16.9L158.69-16.9Q158.29-14.9 158.29-14.4L158.29-14.4Q158.29-12.65 159.54-12.65L159.54-12.65Q160.94-12.65 163.14-14.85L163.14-14.85Q163.79-15.5 164.49-15.5L164.49-15.5Q165.14-15.5 165.51-14.93 165.89-14.35 165.89-13.4L165.89-13.4Q165.89-11.55 164.89-10.5L164.89-10.5Q163.49-9.05 161.61-8.03 159.74-7 157.64-7L157.64-7Q154.99-7 153.61-8.35 152.24-9.7 152.24-12L152.24-12Q152.24-12.75 152.39-13.5L152.39-13.5Q152.49-14.5 152.49-14.85L152.49-14.85Q152.49-15.65 151.94-15.65L151.94-15.65Q151.19-15.65 149.96-13.98 148.74-12.3 147.54-9.55 146.34-6.8 145.59-3.75L145.59-3.75Q145.04-1.4 144.31-0.58 143.59 0.25 142.04 0.25L142.04 0.25ZM190.14-11.15Q190.79-11.15 191.16-10.55 191.54-9.95 191.54-8.9L191.54-8.9Q191.54-6.9 190.59-5.8L190.59-5.8Q188.34-3.05 186.04-1.4 183.74 0.25 180.59 0.25L180.59 0.25Q176.74 0.25 174.39-1.95 172.04-4.15 172.04-7.8L172.04-7.8Q172.04-9.75 174.04-10.6L174.04-10.6Q176.24-11.55 177.19-12.63 178.14-13.7 178.14-15.25L178.14-15.25Q178.14-16.15 177.76-16.6 177.39-17.05 176.84-17.05L176.84-17.05Q175.49-17.05 173.86-15.1 172.24-13.15 170.84-10.08 169.44-7 168.64-3.75L168.64-3.75Q168.09-1.4 167.36-0.58 166.64 0.25 165.09 0.25L165.09 0.25Q163.54 0.25 162.81-0.88 162.09-2 161.84-4.35 161.59-6.7 161.59-11.25L161.59-11.25Q161.59-18.95 163.16-27.3 164.74-35.65 167.81-41.33 170.89-47 175.19-47L175.19-47Q177.49-47 178.91-45.03 180.34-43.05 180.34-39.9L180.34-39.9Q180.34-34.85 177.39-29.43 174.44-24 167.79-16.75L167.79-16.75Q167.64-14.15 167.64-11.4L167.64-11.4Q170.04-17.65 173.14-20.48 176.24-23.3 178.94-23.3L178.94-23.3Q181.44-23.3 182.96-21.6 184.49-19.9 184.49-17.4L184.49-17.4Q184.49-14.65 183.09-12.35 181.69-10.05 178.29-8.25L178.29-8.25Q178.49-6.9 179.51-6.08 180.54-5.25 181.99-5.25L181.99-5.25Q183.54-5.25 184.99-6.45 186.44-7.65 188.79-10.45L188.79-10.45Q189.39-11.15 190.14-11.15L190.14-11.15ZM174.14-42.05Q173.24-42.05 172.14-39.48 171.04-36.9 170.01-32.52 168.99-28.15 168.34-23L168.34-23Q171.44-26.65 173.46-30.95 175.49-35.25 175.49-38.75L175.49-38.75Q175.49-40.35 175.14-41.2 174.79-42.05 174.14-42.05L174.14-42.05Z" opacity="1" transform="matrix(1,0,0,1,0,0)" fill="#ffffff" class="undefined-text-0" data-fill-palette-color="primary" id="text-0"></path></svg></g></svg></g></svg></g></svg></g></svg></g><defs></defs></svg><rect width="395.52" height="109.617035667107" fill="none" stroke="none" visibility="hidden"></rect></g></svg></g></svg>